<svg width="40" height="40" viewBox="0 0 40 40" fill="none" xmlns="http://www.w3.org/2000/svg">
<g clip-path="url(#clip0_2_16)">
<mask id="mask0_2_16" style="mask-type:luminance" maskUnits="userSpaceOnUse" x="0" y="0" width="40" height="40">
<path fill-rule="evenodd" clip-rule="evenodd" d="M20 0C8.9543 0 0 8.9543 0 20C0 31.0457 8.9543 40 20 40C31.0457 40 40 31.0457 40 20C40 8.9543 31.0457 0 20 0Z" fill="white"/>
</mask>
<g mask="url(#mask0_2_16)">
<rect width="40" height="40" fill="#34C759"/>
<mask id="mask1_2_16" style="mask-type:luminance" maskUnits="userSpaceOnUse" x="13" y="13" width="14" height="14">
<path fill-rule="evenodd" clip-rule="evenodd" d="M26.4 19.2001H16.664L21.136 14.7281L20 13.6001L13.6 20.0001L20 26.4001L21.128 25.2721L16.664 20.8001H26.4V19.2001V19.2001Z" fill="white"/>
</mask>
<g mask="url(#mask1_2_16)">
<rect x="9.59998" y="9.6001" width="20.8" height="20.8" fill="#4D4D4D"/>
</g>
</g>
</g>
<defs>
<clipPath id="clip0_2_16">
<rect width="40" height="40" fill="white"/>
</clipPath>
</defs>
</svg>
